<?xml version="1.0" encoding="UTF-8" standalone="no"?>
<svg
   width="1804.5pt"
   height="505.5pt"
   viewBox="0 0 1804.5 505.5"
   version="1.2"
   id="svg2604"
   sodipodi:docname="caution.pdf"
   inkscape:version="1.1 (c68e22c387, 2021-05-23)"
   xmlns:inkscape="http://www.inkscape.org/namespaces/inkscape"
   xmlns:sodipodi="http://sodipodi.sourceforge.net/DTD/sodipodi-0.dtd"
   xmlns="http://www.w3.org/2000/svg"
   xmlns:svg="http://www.w3.org/2000/svg">
  <defs
     id="defs2608" />
  <sodipodi:namedview
     id="namedview2606"
     pagecolor="#ffffff"
     bordercolor="#666666"
     borderopacity="1.0"
     inkscape:pageshadow="2"
     inkscape:pageopacity="0.0"
     inkscape:pagecheckerboard="0"
     inkscape:document-units="pt"
     showgrid="false"
     inkscape:zoom="0.45802161"
     inkscape:cx="1201.9083"
     inkscape:cy="337.32033"
     inkscape:window-width="1920"
     inkscape:window-height="1025"
     inkscape:window-x="-8"
     inkscape:window-y="-8"
     inkscape:window-maximized="1"
     inkscape:current-layer="surface184715" />
  <g
     id="surface184715">
    <path
       style=" stroke:none;fill-rule:nonzero;fill:rgb(100%,72.940063%,0%);fill-opacity:1;"
       d="M 4.484375 0 L 1800.015625 0 C 1802.5 0 1804.5 2 1804.5 4.484375 L 1804.5 501.015625 C 1804.5 503.5 1802.5 505.5 1800.015625 505.5 L 4.484375 505.5 C 2 505.5 0 503.5 0 501.015625 L 0 4.484375 C 0 2 2 0 4.484375 0 Z M 4.484375 0 "
       id="path2587" />
    <path
       style=" stroke:none;fill-rule:nonzero;fill:rgb(100%,100%,100%);fill-opacity:1;"
       d="M 298.222656 267.9375 L 298.222656 237.875 C 298.222656 205.835938 304.367188 181.1875 316.660156 163.9375 C 328.960938 146.679688 348.746094 138.046875 376.019531 138.046875 C 400.414062 138.046875 418.085938 144.355469 429.035156 156.96875 C 439.992188 169.574219 446.605469 187.964844 448.878906 212.140625 L 410.441406 212.140625 C 409.199219 198.496094 405.890625 188.574219 400.519531 182.375 C 395.144531 176.179688 386.976562 173.078125 376.019531 173.078125 C 362.175781 173.078125 352.101562 178.097656 345.800781 188.125 C 339.496094 198.148438 336.347656 214.933594 336.347656 238.484375 L 336.347656 267.625 C 336.347656 290.773438 339.339844 307.363281 345.332031 317.390625 C 351.328125 327.414062 361.253906 332.421875 375.097656 332.421875 C 385.84375 332.421875 393.957031 329.324219 399.425781 323.125 C 404.902344 316.917969 408.472656 307.71875 410.128906 295.53125 L 448.253906 295.53125 C 445.773438 318.46875 438.382812 336.195312 426.082031 348.703125 C 413.789062 361.203125 396.480469 367.453125 374.160156 367.453125 C 347.710938 367.453125 328.4375 359.136719 316.347656 342.5 C 304.261719 325.867188 298.222656 301.011719 298.222656 267.9375 Z M 298.222656 267.9375 "
       id="path2589" />
    <path
       style=" stroke:none;fill-rule:nonzero;fill:rgb(100%,100%,100%);fill-opacity:1;"
       d="M 596.742188 313.515625 L 531.335938 313.515625 L 518.929688 363.109375 L 480.804688 363.109375 L 542.179688 142.390625 L 586.820312 142.390625 L 647.898438 363.109375 L 610.070312 363.109375 Z M 563.273438 187.65625 L 540.023438 280.65625 L 588.070312 280.65625 L 563.882812 187.65625 Z M 563.273438 187.65625 "
       id="path2591" />
    <path
       style=" stroke:none;fill-rule:nonzero;fill:rgb(100%,100%,100%);fill-opacity:1;"
       d="M 689.742188 294.59375 L 689.742188 142.390625 L 726.320312 142.390625 L 726.320312 288.703125 C 726.320312 317.640625 737.890625 332.109375 761.039062 332.109375 C 772.410156 332.109375 781.042969 328.496094 786.929688 321.265625 C 792.824219 314.027344 795.773438 303.277344 795.773438 289.015625 L 795.773438 142.390625 L 832.351562 142.390625 L 832.351562 293.046875 C 832.351562 315.789062 826.40625 333.773438 814.523438 347 C 802.636719 360.21875 784.1875 366.828125 759.179688 366.828125 C 736.65625 366.828125 719.453125 360.320312 707.570312 347.296875 C 695.683594 334.277344 689.742188 316.710938 689.742188 294.59375 Z M 689.742188 294.59375 "
       id="path2593" />
    <path
       style=" stroke:none;fill-rule:nonzero;fill:rgb(100%,100%,100%);fill-opacity:1;"
       d="M 964.09375 177.109375 L 964.09375 363.109375 L 927.203125 363.109375 L 927.203125 177.109375 L 876.984375 177.109375 L 876.984375 142.390625 L 1014 142.390625 L 1014 177.109375 Z M 964.09375 177.109375 "
       id="path2595" />
    <path
       style=" stroke:none;fill-rule:nonzero;fill:rgb(100%,100%,100%);fill-opacity:1;"
       d="M 1058.957031 142.390625 L 1095.535156 142.390625 L 1095.535156 363.109375 L 1058.957031 363.109375 Z M 1058.957031 142.390625 "
       id="path2597" />
    <path
       style=" stroke:none;fill-rule:nonzero;fill:rgb(100%,100%,100%);fill-opacity:1;"
       d="M 1304.78125 269.171875 C 1304.78125 301.421875 1298.527344 325.867188 1286.03125 342.5 C 1273.53125 359.136719 1254.050781 367.453125 1227.59375 367.453125 C 1200.9375 367.453125 1181.507812 359.136719 1169.3125 342.5 C 1157.125 325.867188 1151.03125 301.011719 1151.03125 267.9375 L 1151.03125 237.875 C 1151.03125 205.636719 1157.070312 180.9375 1169.15625 163.78125 C 1181.246094 146.628906 1200.832031 138.046875 1227.90625 138.046875 C 1256.425781 138.046875 1276.316406 146.417969 1287.578125 163.15625 C 1298.835938 179.898438 1304.570312 204.183594 1304.78125 236.015625 Z M 1189.15625 267.625 C 1189.15625 290.773438 1192.148438 307.363281 1198.140625 317.390625 C 1204.136719 327.414062 1214.0625 332.421875 1227.90625 332.421875 C 1241.746094 332.421875 1251.664062 327.414062 1257.65625 317.390625 C 1263.652344 307.363281 1266.65625 290.980469 1266.65625 268.25 L 1266.65625 236.9375 C 1266.65625 214.003906 1263.707031 197.625 1257.8125 187.8125 C 1251.925781 177.992188 1242.058594 173.078125 1228.21875 173.078125 C 1214.164062 173.078125 1204.136719 178.144531 1198.140625 188.265625 C 1192.148438 198.390625 1189.15625 215.132812 1189.15625 238.484375 Z M 1189.15625 267.625 "
       id="path2599" />
    <path
       style=" stroke:none;fill-rule:nonzero;fill:rgb(100%,100%,100%);fill-opacity:1;"
       d="M 1470.9375 293.984375 L 1471.25 293.984375 L 1471.25 142.390625 L 1506.28125 142.390625 L 1506.28125 363.109375 L 1468.15625 363.109375 L 1396.546875 212.765625 L 1395.921875 212.765625 L 1395.921875 363.109375 L 1361.203125 363.109375 L 1361.203125 142.390625 L 1399.328125 142.390625 Z M 1470.9375 293.984375 "
       id="path2601" />
  </g>
</svg>
