<?xml version="1.0" encoding="UTF-8" standalone="no"?>
<svg
   width="1800pt"
   height="504pt"
   viewBox="0 0 1800 504"
   version="1.2"
   id="svg41"
   sodipodi:docname="note.svg"
   inkscape:version="1.1 (c68e22c387, 2021-05-23)"
   xmlns:inkscape="http://www.inkscape.org/namespaces/inkscape"
   xmlns:sodipodi="http://sodipodi.sourceforge.net/DTD/sodipodi-0.dtd"
   xmlns="http://www.w3.org/2000/svg"
   xmlns:svg="http://www.w3.org/2000/svg">
  <defs
     id="defs45" />
  <sodipodi:namedview
     id="namedview43"
     pagecolor="#ffffff"
     bordercolor="#666666"
     borderopacity="1.0"
     inkscape:pageshadow="2"
     inkscape:pageopacity="0.0"
     inkscape:pagecheckerboard="0"
     inkscape:document-units="pt"
     showgrid="false"
     inkscape:zoom="0.45916667"
     inkscape:cx="1198.9111"
     inkscape:cy="336.47913"
     inkscape:window-width="1920"
     inkscape:window-height="1025"
     inkscape:window-x="-8"
     inkscape:window-y="-8"
     inkscape:window-maximized="1"
     inkscape:current-layer="svg41" />
  <g
     id="surface95529">
    <path
       style=" stroke:none;fill-rule:nonzero;fill:rgb(61.175537%,61.175537%,61.175537%);fill-opacity:1;"
       d="M 4.484375 1.617188 L 1795.515625 1.617188 C 1798 1.617188 1800 3.617188 1800 6.101562 L 1800 501.136719 C 1800 503.621094 1798 505.617188 1795.515625 505.617188 L 4.484375 505.617188 C 2 505.617188 0 503.621094 0 501.136719 L 0 6.101562 C 0 3.617188 2 1.617188 4.484375 1.617188 Z M 4.484375 1.617188 "
       id="path30" />
    <path
       style=" stroke:none;fill-rule:nonzero;fill:rgb(100%,100%,100%);fill-opacity:1;"
       d="M 665.792969 293.234375 L 666.105469 293.234375 L 666.105469 141.640625 L 701.136719 141.640625 L 701.136719 362.359375 L 663.011719 362.359375 L 591.402344 212.015625 L 590.777344 212.015625 L 590.777344 362.359375 L 556.058594 362.359375 L 556.058594 141.640625 L 594.183594 141.640625 Z M 665.792969 293.234375 "
       id="path32" />
    <path
       style=" stroke:none;fill-rule:nonzero;fill:rgb(100%,100%,100%);fill-opacity:1;"
       d="M 910.070312 268.421875 C 910.070312 300.671875 903.816406 325.117188 891.320312 341.75 C 878.820312 358.386719 859.339844 366.703125 832.882812 366.703125 C 806.226562 366.703125 786.796875 358.386719 774.601562 341.75 C 762.414062 325.117188 756.320312 300.261719 756.320312 267.1875 L 756.320312 237.125 C 756.320312 204.886719 762.359375 180.1875 774.445312 163.03125 C 786.535156 145.878906 806.121094 137.296875 833.195312 137.296875 C 861.714844 137.296875 881.605469 145.667969 892.867188 162.40625 C 904.125 179.148438 909.859375 203.433594 910.070312 235.265625 Z M 794.445312 266.875 C 794.445312 290.023438 797.4375 306.613281 803.429688 316.640625 C 809.425781 326.664062 819.351562 331.671875 833.195312 331.671875 C 847.035156 331.671875 856.953125 326.664062 862.945312 316.640625 C 868.941406 306.613281 871.945312 290.230469 871.945312 267.5 L 871.945312 236.1875 C 871.945312 213.253906 868.996094 196.875 863.101562 187.0625 C 857.214844 177.242188 847.347656 172.328125 833.507812 172.328125 C 819.453125 172.328125 809.425781 177.394531 803.429688 187.515625 C 797.4375 197.640625 794.445312 214.382812 794.445312 237.734375 Z M 794.445312 266.875 "
       id="path34" />
    <path
       style=" stroke:none;fill-rule:nonzero;fill:rgb(100%,100%,100%);fill-opacity:1;"
       d="M 1032.527344 176.359375 L 1032.527344 362.359375 L 995.636719 362.359375 L 995.636719 176.359375 L 945.417969 176.359375 L 945.417969 141.640625 L 1082.433594 141.640625 L 1082.433594 176.359375 Z M 1032.527344 176.359375 "
       id="path36" />
    <path
       style=" stroke:none;fill-rule:nonzero;fill:rgb(100%,100%,100%);fill-opacity:1;"
       d="M 1243.324219 176.359375 L 1164.277344 176.359375 L 1164.277344 232.78125 L 1236.199219 232.78125 L 1236.199219 267.5 L 1164.277344 267.5 L 1164.277344 327.640625 L 1243.949219 327.640625 L 1243.949219 362.359375 L 1127.386719 362.359375 L 1127.386719 141.640625 L 1243.324219 141.640625 Z M 1243.324219 176.359375 "
       id="path38" />
  </g>
</svg>
